<?xml version="1.0" encoding="UTF-8"?>
<svg id="Layer_1" data-name="Layer 1" xmlns="http://www.w3.org/2000/svg" viewBox="0 0 134.68 128.14">
  <defs>
    <style>
      .cls-1 {
        fill: none;
        stroke: #987554;
        stroke-miterlimit: 10;
        stroke-width: 7px;
      }

      .cls-2 {
        fill: tan;
      }

      .cls-2, .cls-3 {
        stroke-width: 0px;
      }

      .cls-3 {
        fill: #987554;
      }
    </style>
  </defs>
  <rect class="cls-2" width="134.68" height="128.14"/>
  <path class="cls-1" d="m115.6,116.21H18.34c-2.24-21.48-4.48-42.96-6.72-64.45,15.04,3.01,33.85,5.51,55.53,5.52,21.75,0,40.61-2.5,55.67-5.52-2.41,21.48-4.82,42.96-7.23,64.45Z"/>
  <path class="cls-1" d="m16.83,51.46c-2.04-14.07-4.39-37.35,3.17-40.3,1.07-.42,3.04-.7,7.15,1.71,16.87,9.89,21.05,36.5,22.01,43.83"/>
  <path class="cls-1" d="m54.3,55.82V23.63c8.03.02,16.06.04,24.1.06.07,11.12.14,22.24.21,33.36"/>
  <rect class="cls-1" x="59.19" y="13.48" width="13.45" height="9.31"/>
  <path class="cls-1" d="m81.31,55c1.11-13.19,9.08-23.35,18.85-25.17,5.92-1.11,15.96.19,19.6,7.8,3.24,6.76-.73,14.04-1.26,14.97"/>
  <path class="cls-3" d="m113.01,27.58c.79-3.48,1.52-7.11.55-10.64-.21-.78-1.06-1.26-1.85-1.05s-1.26,1.06-1.05,1.85c.81,2.96.13,6.04-.55,9.05-.17.76.23,1.66,1.05,1.85.76.17,1.66-.23,1.85-1.05h0Z"/>
  <path class="cls-3" d="m113.31,23.37c1.65.13,3.32-.01,4.93-.37.77-.17,1.29-1.1,1.05-1.85-.26-.81-1.02-1.23-1.85-1.05-.43.09-.86.17-1.3.23l.4-.05c-1.07.14-2.16.17-3.24.08-.37-.03-.81.19-1.06.44s-.46.69-.44,1.06c.04.87.66,1.43,1.5,1.5h0Z"/>
  <path class="cls-3" d="m24.92,47.31c3.42-1.65,7.19-2.51,10.98-2.58,1.93-.04,1.93-3.04,0-3-4.34.08-8.58,1.11-12.49,2.99-.73.35-.92,1.39-.54,2.05.44.75,1.32.89,2.05.54h0Z"/>
  <path class="cls-3" d="m24.85,37.47c1.29-.7,2.32-1.11,3.81-1.5.35-.09.7-.17,1.06-.24.15-.03.3-.06.46-.08.05,0,.62-.09.37-.06.72-.09,1.44-.14,2.16-.14.78,0,1.54-.68,1.5-1.5s-.66-1.51-1.5-1.5c-3.27.03-6.49.87-9.37,2.43-.69.37-.97,1.39-.54,2.05.45.7,1.31.94,2.05.54h0Z"/>
  <path class="cls-3" d="m23.68,26.67c.22-.14.45-.28.69-.4.09-.05.18-.09.27-.13.06-.03.12-.06.18-.08-.21.09-.23.1-.08.04.45-.17.9-.32,1.38-.42.11-.02.23-.05.34-.07.07-.01.13-.02.2-.03-.24.03-.27.04-.1.02.23-.02.46-.04.69-.05s.46,0,.69,0c.13,0,.26.02.4.03.07,0,.13.01.2.02-.23-.03-.27-.04-.1-.01.41.07.78.07,1.16-.15.31-.18.61-.54.69-.9.16-.72-.22-1.71-1.05-1.85-2.44-.39-4.94.04-7.05,1.37-.66.42-.99,1.35-.54,2.05.43.66,1.34.99,2.05.54h0Z"/>
</svg>