<?xml version="1.0" encoding="UTF-8"?>
<svg id="Layer_1" data-name="Layer 1" xmlns="http://www.w3.org/2000/svg" viewBox="0 0 145.22 123.05">
  <defs>
    <style>
      .cls-1 {
        fill: #987554;
        stroke: #987554;
      }

      .cls-1, .cls-2 {
        stroke-miterlimit: 10;
        stroke-width: 2px;
      }

      .cls-2 {
        fill: #b99976;
        stroke: #b99976;
      }

      .cls-3 {
        font-size: 25px;
      }

      .cls-3, .cls-4 {
        fill: #e5d3b3;
        font-family: Quattrocento-Bold, Quattrocento;
        font-weight: 700;
      }

      .cls-4 {
        font-size: 7.3px;
      }

      .cls-5 {
        letter-spacing: 0em;
      }

      .cls-6 {
        letter-spacing: 0em;
      }

      .cls-7 {
        letter-spacing: 0em;
      }
    </style>
  </defs>
  <path class="cls-2" d="m144.22,115.98c-18.25,3.14-42.77,6.08-71.85,6.07-28.86-.02-53.21-2.94-71.37-6.07V1h143.22v114.98Z"/>
  <path class="cls-1" d="m144.22,109.48c-18.25,2.96-42.77,5.73-71.85,5.71-28.86-.02-53.21-2.77-71.37-5.71V1.26h143.22v108.21Z"/>
  <text class="cls-3" transform="translate(13.73 52.93) scale(.64 1)"><tspan x="0" y="0">G</tspan><tspan class="cls-5" x="17.55" y="0">r</tspan><tspan x="28.45" y="0">een G</tspan><tspan class="cls-5" x="93.32" y="0">r</tspan><tspan x="104.22" y="0">o</tspan><tspan class="cls-7" x="118.3" y="0">c</tspan><tspan x="130.57" y="0">eries </tspan></text>
  <text class="cls-4" transform="translate(4.36 78.35) scale(1.1 1)"><tspan x="0" y="0">Boodschappen </tspan><tspan class="cls-6" x="51.57" y="0">d</tspan><tspan x="56.09" y="0">oen kan altijd g</tspan><tspan class="cls-6" x="107.01" y="0">r</tspan><tspan x="110.19" y="0">oen.</tspan></text>
</svg>