<?xml version="1.0" encoding="UTF-8"?>
<svg id="Layer_1" data-name="Layer 1" xmlns="http://www.w3.org/2000/svg" viewBox="0 0 96.07 96.07">
  <defs>
    <style>
      .cls-1 {
        stroke: #b99976;
      }

      .cls-1, .cls-2 {
        fill: none;
      }

      .cls-1, .cls-2, .cls-3 {
        stroke-miterlimit: 10;
        stroke-width: 3px;
      }

      .cls-2, .cls-3 {
        stroke: #987554;
      }

      .cls-3 {
        fill: #b99976;
      }

      .cls-4 {
        fill: #e5d3b3;
        stroke-width: 0px;
      }
    </style>
  </defs>
  <rect class="cls-4" width="96.07" height="96.07"/>
  <circle class="cls-3" cx="66.44" cy="46.97" r="11.6"/>
  <path class="cls-3" d="m72.7,60.83c1.66,2.63,3.88,6.76,5.65,12.47,1.89,6.09,2.51,11.58,2.73,15.25h-29.29c.22-3.67.85-9.16,2.73-15.25,1.77-5.71,3.99-9.84,5.65-12.47"/>
  <path class="cls-2" d="m40.16,28.06c-6.72-5.18-20.11-3.34-23.6,3.12-1.19,2.2-1.37,5.18,0,7.64,2.17,3.88,7.93,5.97,14.27,4.68,2.99,1.88,7.32,3.89,12.7,4.25.74.05,1.45.07,2.15.05-1.49-2.01-2.98-4.02-4.47-6.03.91-.69,2.81-2.34,3.31-4.9.9-4.65-3.63-8.28-4.35-8.83Z"/>
  <path class="cls-1" d="m24.53,34.05c1.01.93,2.02,1.85,3.03,2.78l7.84-6.07"/>
</svg>