<?xml version="1.0" encoding="UTF-8"?>
<svg id="Layer_1" data-name="Layer 1" xmlns="http://www.w3.org/2000/svg" viewBox="0 0 128.29 119.26">
  <defs>
    <style>
      .cls-1, .cls-2 {
        fill: none;
      }

      .cls-1, .cls-2, .cls-3, .cls-4, .cls-5 {
        stroke-miterlimit: 10;
      }

      .cls-1, .cls-2, .cls-4, .cls-5 {
        stroke-width: 3px;
      }

      .cls-1, .cls-5 {
        stroke: #e5d3b3;
      }

      .cls-2, .cls-3, .cls-4 {
        stroke: #b99976;
      }

      .cls-3 {
        font-family: Quattrocento, Quattrocento;
        font-size: 10.38px;
      }

      .cls-3, .cls-6 {
        fill: #fff;
      }

      .cls-7 {
        letter-spacing: -.01em;
      }

      .cls-8 {
        letter-spacing: 0em;
      }

      .cls-4 {
        fill: #00a651;
      }

      .cls-9 {
        letter-spacing: -.04em;
      }

      .cls-5 {
        fill: #e5d3b3;
      }

      .cls-10 {
        fill: #b99976;
      }

      .cls-10, .cls-6 {
        stroke-width: 0px;
      }
    </style>
  </defs>
  <line class="cls-4" x1="66.42" y1="19.92" x2="66.42" y2="44.04"/>
  <path class="cls-5" d="m126.45,117.76H1.87c2.26-10.25,4.18-23.37,4.02-38.62-.14-13.69-1.91-25.57-4.02-35.1h124.59c-2.02,9.93-3.66,22.2-3.71,36.27-.05,14.59,1.64,27.27,3.71,37.45Z"/>
  <text class="cls-3" transform="translate(26.85 91.87) scale(1.04 1)"><tspan class="cls-7" x="0" y="0">G</tspan><tspan class="cls-8" x="7.22" y="0"> </tspan><tspan class="cls-9" x="9.71" y="0">R</tspan><tspan class="cls-8" x="15.94" y="0" xml:space="preserve"> O C E </tspan><tspan class="cls-9" x="46.5" y="0">R</tspan><tspan class="cls-8" x="52.73" y="0" xml:space="preserve"> I E S</tspan></text>
  <path class="cls-1" d="m8.23,44.27C14.51,23.14,31.23,6.8,51.76,2.58c27.6-5.67,58.38,11.31,69.22,41.46"/>
  <g>
    <path class="cls-6" d="m114.45,12.23c-4.03-.81-18.36-3.65-27.4-4.63-.45-.05-2.36-.21-4.91-.18-4.12.04-8.6.54-11.7,2.83-2,1.48-3.19,3.57-3.67,5.67s-.31,4.25.04,6.35c.23,1.36.54,2.7.94,4.03.21.69.45,1.38.88,1.99.42.6,1.02,1.1,1.69,1.53,3.92,2.54,9.85,2.44,14.71.81,3.81-1.27,6.84-3.24,12.83-7.38,2.81-1.95,3.29-2.47,6.38-4.62,4.19-2.91,7.78-5.04,10.19-6.39Z"/>
    <path class="cls-10" d="m114.95,10.42c-6.6-1.33-13.22-2.57-19.87-3.61-3.43-.53-6.9-1.11-10.38-1.23-4.44-.16-9.17.01-13.26,1.91-4.3,2-6.74,6.26-6.83,10.93-.05,2.5.44,5.08,1.09,7.49s1.68,4.27,3.84,5.62c6.87,4.29,16.02,1.73,22.45-2.14,3.85-2.32,7.48-4.99,11.1-7.65,3.93-2.88,8.06-5.5,12.3-7.89,2.1-1.19.21-4.43-1.89-3.24-6.69,3.77-12.71,8.41-19.04,12.72-5.61,3.81-11.84,7.59-18.96,6.42-1.73-.28-3.61-.87-4.91-2.09-1.44-1.35-1.7-4.26-2-6.11-.67-4.12.13-8.35,4.06-10.48,3.46-1.87,7.84-1.86,11.66-1.75,3.03.09,6.04.54,9.03,1,6.9,1.05,13.76,2.35,20.6,3.72,2.36.47,3.36-3.14,1-3.62Z"/>
  </g>
  <g>
    <path class="cls-6" d="m18.23,17.41c3.85-1.27,17.56-5.75,26.31-7.79.43-.1,2.3-.48,4.8-.77,4.06-.46,8.52-.53,11.88,1.3,2.17,1.18,3.61,3.05,4.37,5.02s.88,4.06.81,6.12c-.05,1.34-.17,2.67-.39,3.99-.11.69-.26,1.38-.6,2.02-.34.63-.86,1.18-1.46,1.68-3.52,2.93-9.36,3.54-14.35,2.57-3.91-.76-7.16-2.29-13.61-5.55-3.03-1.53-3.56-1.98-6.89-3.68-4.51-2.29-8.32-3.9-10.88-4.92Z"/>
    <path class="cls-10" d="m18.73,19.21c5.7-1.88,11.42-3.69,17.18-5.35,3.15-.91,6.32-1.85,9.53-2.52,3.67-.77,7.77-1.31,11.49-.66,4.07.71,6.96,3.34,7.51,7.52.28,2.14.13,4.46-.23,6.59-.34,1.99-1.49,3.02-3.24,3.91-6.06,3.09-13.32.87-19.05-1.85-3.76-1.78-7.37-3.81-11.06-5.72-3.95-2.05-8-3.88-12.13-5.52-.95-.38-2.05.41-2.31,1.31-.3,1.06.37,1.93,1.31,2.31,7.66,3.05,14.7,7.25,22.13,10.79,6.78,3.23,14.6,5.48,21.9,2.42,1.91-.8,3.78-1.98,4.98-3.72,1.32-1.93,1.41-4.71,1.52-6.97.22-4.57-.79-9.22-4.56-12.17s-8.77-3.12-13.3-2.7c-3.61.33-7.07,1.07-10.56,2-7.44,1.99-14.79,4.32-22.11,6.73-2.28.75-1.3,4.37,1,3.62Z"/>
  </g>
  <path class="cls-2" d="m66.64,21.39c4.94-2.24,11.52-4.28,19.4-4.23,2.06.01,4.02.17,5.86.42"/>
  <path class="cls-2" d="m38.69,19.2c3.8-.8,9.58-1.53,16.46-.57,4.6.64,8.4,1.87,11.26,3.03"/>
  <text class="cls-3" transform="translate(43.43 69.47) scale(1.04 1)"><tspan class="cls-7" x="0" y="0">G</tspan><tspan class="cls-8" x="7.22" y="0"> </tspan><tspan class="cls-9" x="9.71" y="0">R</tspan><tspan class="cls-8" x="15.94" y="0" xml:space="preserve"> E E N</tspan></text>
</svg>