<?xml version="1.0" encoding="UTF-8"?>
<svg id="Layer_1" data-name="Layer 1" xmlns="http://www.w3.org/2000/svg" viewBox="0 0 134.68 128.14">
  <defs>
    <style>
      .cls-1 {
        fill: none;
        stroke: #987554;
        stroke-miterlimit: 10;
        stroke-width: 7px;
      }

      .cls-2 {
        fill: tan;
      }

      .cls-2, .cls-3 {
        stroke-width: 0px;
      }

      .cls-3 {
        fill: #987554;
      }
    </style>
  </defs>
  <rect class="cls-2" width="134.68" height="128.14"/>
  <path class="cls-1" d="m33.12,24.64C58.29.37,108.44,9,121.54,39.29c4.45,10.3,5.14,24.31,0,35.85-8.11,18.22-29.7,27.99-53.44,21.97-11.21,8.79-27.4,18.25-47.58,19.95-2.77.23-5.45.31-8.04.25,5.58-9.43,11.15-18.85,16.73-28.28-3.4-3.23-10.53-11-12.38-22.98-3.37-21.79,13.61-38.82,16.29-41.41Z"/>
  <path class="cls-3" d="m45.19,59.91c3.86,0,3.87-6,0-6s-3.87,6,0,6h0Z"/>
  <path class="cls-3" d="m73.25,59.91c3.86,0,3.87-6,0-6s-3.87,6,0,6h0Z"/>
  <path class="cls-3" d="m100.73,60.21c3.86,0,3.87-6,0-6s-3.87,6,0,6h0Z"/>
</svg>