<?xml version="1.0" encoding="UTF-8"?>
<svg id="Layer_1" data-name="Layer 1" xmlns="http://www.w3.org/2000/svg" viewBox="0 0 145.22 186.53">
  <defs>
    <style>
      .cls-1 {
        letter-spacing: 0em;
      }

      .cls-2 {
        fill: #987554;
        stroke: #987554;
      }

      .cls-2, .cls-3 {
        stroke-miterlimit: 10;
        stroke-width: 2px;
      }

      .cls-3 {
        fill: #b99976;
        stroke: #b99976;
      }

      .cls-4 {
        font-size: 7.3px;
      }

      .cls-4, .cls-5 {
        fill: #e5d3b3;
        font-family: Quattrocento-Bold, Quattrocento;
        font-weight: 700;
      }

      .cls-6 {
        letter-spacing: 0em;
      }

      .cls-7 {
        letter-spacing: 0em;
      }

      .cls-5 {
        font-size: 36.5px;
      }

      .cls-8 {
        letter-spacing: 0em;
      }
    </style>
  </defs>
  <path class="cls-3" d="m144.22,176.28c-18.25,4.79-42.77,9.28-71.85,9.25-28.86-.02-53.21-4.49-71.37-9.25V1h143.22v175.28Z"/>
  <path class="cls-2" d="m144.22,166.88c-18.25,4.52-42.77,8.76-71.85,8.74-28.86-.02-53.21-4.24-71.37-8.74V1.26h143.22v165.61Z"/>
  <text class="cls-5" transform="translate(39.16 59.24) scale(.64 1)"><tspan x="0" y="0">G</tspan><tspan class="cls-7" x="25.62" y="0">r</tspan><tspan x="41.54" y="0">een </tspan></text>
  <text class="cls-5" transform="translate(22.31 95.73) scale(.64 1)"><tspan x="0" y="0">G</tspan><tspan class="cls-7" x="25.62" y="0">r</tspan><tspan x="41.54" y="0">o</tspan><tspan class="cls-8" x="62.08" y="0">c</tspan><tspan class="cls-1" x="80.01" y="0">eries</tspan></text>
  <text class="cls-4" transform="translate(4.27 130.8) scale(1.1 1)"><tspan x="0" y="0">Boodschappen </tspan><tspan class="cls-6" x="51.57" y="0">d</tspan><tspan x="56.09" y="0">oen kan altijd g</tspan><tspan class="cls-6" x="107.01" y="0">r</tspan><tspan x="110.19" y="0">oen.</tspan></text>
</svg>